<svg width="21" height="23" viewBox="0 0 21 23" fill="none" xmlns="http://www.w3.org/2000/svg">
<path d="M4.59375 16.2917H7.625C9.21282 16.2917 10.5 17.5789 10.5 19.1667V9.73959C10.5 7.00227 10.5 5.63361 9.67274 4.76471C9.63889 4.72916 9.60417 4.69444 9.56862 4.66059C8.69972 3.83334 7.33107 3.83334 4.59375 3.83334C3.68131 3.83334 3.22509 3.83334 2.93546 4.10909C2.92361 4.12037 2.91204 4.13194 2.90075 4.1438C2.625 4.43343 2.625 4.88965 2.625 5.80208V14.3229C2.625 15.2354 2.625 15.6916 2.90075 15.9812C2.91204 15.9931 2.92361 16.0046 2.93546 16.0159C3.22509 16.2917 3.68131 16.2917 4.59375 16.2917Z" stroke="white"/>
<path d="M16.4062 16.2917H13.375C11.7872 16.2917 10.5 17.5789 10.5 19.1667V9.73959C10.5 7.00227 10.5 5.63361 11.3273 4.76471C11.3611 4.72916 11.3958 4.69444 11.4314 4.66059C12.3003 3.83334 13.6689 3.83334 16.4062 3.83334C17.3187 3.83334 17.7749 3.83334 18.0645 4.10909C18.0764 4.12037 18.088 4.13194 18.0992 4.1438C18.375 4.43343 18.375 4.88965 18.375 5.80208V14.3229C18.375 15.2354 18.375 15.6916 18.0992 15.9812C18.088 15.9931 18.0764 16.0046 18.0645 16.0159C17.7749 16.2917 17.3187 16.2917 16.4062 16.2917Z" stroke="white"/>
</svg>
