<svg width="24" height="25" viewBox="0 0 24 25" fill="none" xmlns="http://www.w3.org/2000/svg">
<path d="M14.1361 2.36144L15.1312 2.26194L15.1312 2.26194L14.1361 2.36144ZM13.9838 1.54161L13.095 2L13.095 2L13.9838 1.54161ZM14.4311 3.81793L15.2261 3.21141L15.2261 3.2114L14.4311 3.81793ZM15.3595 4.20248L15.2261 3.21141L15.2261 3.21141L15.3595 4.20248ZM16.5979 3.38113L17.2311 4.15509L17.2311 4.15509L16.5979 3.38113ZM17.2853 2.90918L17.5896 3.86175L17.5896 3.86175L17.2853 2.90918ZM17.9872 2.94419L18.3848 2.02663L18.3848 2.02663L17.9872 2.94419ZM18.6243 3.4822L17.9172 4.1893L17.9172 4.18931L18.6243 3.4822ZM19.5178 4.37567L20.2249 3.66856L20.2249 3.66856L19.5178 4.37567ZM20.0558 5.01275L20.9733 4.61517L20.9733 4.61516L20.0558 5.01275ZM20.0908 5.71464L21.0434 6.01895L21.0434 6.01894L20.0908 5.71464ZM19.6188 6.4021L18.8449 5.76886L18.8449 5.76886L19.6188 6.4021ZM18.7975 7.64056L17.8064 7.50724L17.8064 7.50725L18.7975 7.64056ZM19.182 8.56893L18.5755 9.36398L18.5755 9.36398L19.182 8.56893ZM20.6385 8.86385L20.738 7.86882L20.738 7.86882L20.6385 8.86385ZM21.4584 9.01624L21.9168 8.1275L21.9168 8.1275L21.4584 9.01624ZM21.9299 9.53729L22.8599 9.1696L22.8599 9.1696L21.9299 9.53729ZM21.93 12.4626L21 12.095L21 12.095L21.93 12.4626ZM21.4583 12.9838L21.9166 13.8726L21.9166 13.8726L21.4583 12.9838ZM20.6386 13.1361L20.5391 12.1411L20.5065 12.1444L20.4742 12.1497L20.6386 13.1361ZM20.6386 13.1361L20.7381 14.1312L20.7707 14.1279L20.803 14.1225L20.6386 13.1361ZM19.1825 13.4309L18.5762 12.6357L18.5762 12.6357L19.1825 13.4309ZM18.7979 14.3596L17.8068 14.4931L17.8068 14.4931L18.7979 14.3596ZM19.619 15.5976L18.845 16.2308L18.845 16.2308L19.619 15.5976ZM20.0908 16.2848L19.1383 16.5892L19.1383 16.5892L20.0908 16.2848ZM20.0558 16.9869L19.1383 16.5892L19.1383 16.5892L20.0558 16.9869ZM19.5179 17.6238L20.225 18.3309L20.225 18.3309L19.5179 17.6238ZM18.6243 18.5174L17.9172 17.8102L17.9172 17.8103L18.6243 18.5174ZM17.9873 19.0554L18.3849 19.9729L18.3849 19.9729L17.9873 19.0554ZM17.2854 19.0904L16.981 20.0429L16.981 20.0429L17.2854 19.0904ZM16.5979 18.6184L17.2312 17.8444L17.2226 17.8376L16.5979 18.6184ZM16.5979 18.6184L15.9646 19.3924L15.9732 19.3993L16.5979 18.6184ZM15.3595 17.7971L15.4928 16.806L15.4928 16.806L15.3595 17.7971ZM14.4311 18.1816L15.2262 18.7882L15.2262 18.7881L14.4311 18.1816ZM14.1362 19.6383L13.1411 19.5388L13.1411 19.5388L14.1362 19.6383ZM13.9837 20.4585L13.095 20L13.095 20L13.9837 20.4585ZM13.4628 20.9299L13.095 20L13.095 20L13.4628 20.9299ZM10.5373 20.9299L10.905 20L10.905 20L10.5373 20.9299ZM10.0162 20.4584L10.905 20L10.905 20L10.0162 20.4584ZM9.86385 19.6385L8.86882 19.7381L8.86882 19.7381L9.86385 19.6385ZM9.56892 18.182L8.77387 18.7885L8.77387 18.7885L9.56892 18.182ZM8.64057 17.7975L8.50728 16.8064L8.50727 16.8064L8.64057 17.7975ZM7.40208 18.6189L6.76884 17.8449L6.753 17.8579L6.73771 17.8714L7.40208 18.6189ZM7.40206 18.6189L8.0353 19.3928L8.05113 19.3799L8.06643 19.3663L7.40206 18.6189ZM6.71458 19.0908L7.01887 20.0434L7.01887 20.0434L6.71458 19.0908ZM6.01272 19.0558L5.61515 19.9734L5.61515 19.9734L6.01272 19.0558ZM5.37561 18.5178L6.08271 17.8107L6.08271 17.8107L5.37561 18.5178ZM4.48217 17.6243L3.77506 18.3315L3.77506 18.3315L4.48217 17.6243ZM3.94414 16.9873L4.86171 16.5897L4.86171 16.5897L3.94414 16.9873ZM3.90913 16.2854L4.86171 16.5897L4.86171 16.5897L3.90913 16.2854ZM4.3811 15.5979L5.15506 16.2311L5.15506 16.2311L4.3811 15.5979ZM5.20247 14.3594L6.19355 14.4928L6.19355 14.4928L5.20247 14.3594ZM4.81792 13.4311L5.42445 12.636L5.42445 12.636L4.81792 13.4311ZM3.36143 13.1361L3.26193 14.1312L3.26193 14.1312L3.36143 13.1361ZM2.54161 12.9838L3 12.095L3 12.095L2.54161 12.9838ZM2.07005 12.4627L1.14009 12.8304L1.14009 12.8304L2.07005 12.4627ZM2.07008 9.53721L1.14017 9.16944L1.14017 9.16944L2.07008 9.53721ZM2.54152 9.01628L2.08305 8.12757L2.08305 8.12757L2.54152 9.01628ZM3.36155 8.86384V7.86384H3.31167L3.26205 7.86881L3.36155 8.86384ZM3.36156 8.86384V9.86384H3.41143L3.46106 9.85888L3.36156 8.86384ZM4.81842 8.56881L4.21178 7.77383L4.21177 7.77383L4.81842 8.56881ZM5.20287 7.64066L6.19396 7.50749L6.19396 7.50749L5.20287 7.64066ZM4.38128 6.40182L5.15523 5.76858L5.15523 5.76858L4.38128 6.40182ZM3.90914 5.71405L4.86175 5.40988L4.86175 5.40988L3.90914 5.71405ZM3.94413 5.01243L3.02651 4.61498L3.02651 4.61498L3.94413 5.01243ZM4.48233 4.37509L5.18944 5.0822L5.18944 5.0822L4.48233 4.37509ZM5.37565 3.48177L4.66855 2.77466L4.66855 2.77466L5.37565 3.48177ZM6.01277 2.94373L5.6152 2.02615L5.6152 2.02616L6.01277 2.94373ZM6.71463 2.90872L7.01892 1.95614L7.01892 1.95614L6.71463 2.90872ZM7.4022 3.38076L8.03543 2.60681L8.03543 2.60681L7.4022 3.38076ZM8.64044 4.20207L8.77391 3.21101L8.77391 3.21101L8.64044 4.20207ZM9.56907 3.81742L8.77391 3.21101L8.77391 3.21101L9.56907 3.81742ZM9.86387 2.36131L10.8589 2.46081L10.8589 2.46081L9.86387 2.36131ZM10.0162 1.5417L9.12739 1.08341L9.12739 1.08341L10.0162 1.5417ZM10.5374 1.07001L10.905 2L10.905 2L10.5374 1.07001ZM13.4627 1.07005L13.8304 0.140096L13.8304 0.140096L13.4627 1.07005ZM15.1312 2.26194C15.1108 2.05831 15.0912 1.85693 15.0626 1.6868C15.0324 1.50684 14.9828 1.29705 14.8725 1.08322L13.095 2C13.0721 1.95549 13.0769 1.93878 13.0902 2.01798C13.1052 2.10701 13.1181 2.23089 13.1411 2.46094L15.1312 2.26194ZM15.2261 3.2114C15.2894 3.29433 15.2693 3.33101 15.2342 3.13595C15.2008 2.95045 15.1739 2.68915 15.1312 2.26194L13.1411 2.46094C13.1805 2.85459 13.2152 3.20895 13.2658 3.49017C13.3147 3.76184 13.4009 4.11633 13.636 4.42445L15.2261 3.2114ZM15.2261 3.21141L15.2261 3.21141L13.636 4.42444C14.0718 4.99575 14.7806 5.28935 15.4928 5.19355L15.2261 3.21141ZM15.9646 2.60717C15.6323 2.87905 15.4286 3.04481 15.2738 3.15238C15.1111 3.26548 15.1228 3.22531 15.2261 3.21141L15.4928 5.19355C15.8768 5.14188 16.1885 4.95223 16.4152 4.7947C16.6498 4.63163 16.9249 4.4056 17.2311 4.15509L15.9646 2.60717ZM16.981 1.95661C16.7518 2.02983 16.5684 2.14308 16.4198 2.24897C16.2793 2.34907 16.123 2.47759 15.9646 2.60717L17.2311 4.15509C17.41 4.00869 17.5068 3.93022 17.5803 3.87784C17.6457 3.83124 17.6373 3.84651 17.5896 3.86175L16.981 1.95661ZM18.3848 2.02663C17.9408 1.83421 17.442 1.80934 16.981 1.95661L17.5896 3.86175L17.5896 3.86175L18.3848 2.02663ZM19.3314 2.77509C19.1867 2.6304 19.044 2.48696 18.9142 2.37338C18.7768 2.25323 18.6056 2.12228 18.3848 2.02663L17.5896 3.86175C17.5437 3.84184 17.5369 3.82581 17.5973 3.87869C17.6653 3.93813 17.7537 4.02583 17.9172 4.1893L19.3314 2.77509ZM20.2249 3.66856L19.3314 2.77509L17.9172 4.18931L18.8107 5.08277L20.2249 3.66856ZM20.9733 4.61516C20.8777 4.39441 20.7467 4.22316 20.6266 4.08581C20.513 3.95597 20.3696 3.81326 20.2249 3.66856L18.8107 5.08277C18.9741 5.24626 19.0618 5.33469 19.1213 5.40264C19.1742 5.46308 19.1581 5.45629 19.1382 5.41034L20.9733 4.61516ZM21.0434 6.01894C21.1906 5.55797 21.1658 5.05922 20.9733 4.61517L19.1382 5.41034L19.1382 5.41034L21.0434 6.01894ZM20.3928 7.03534C20.5224 6.87696 20.6509 6.72069 20.751 6.58019C20.8569 6.43156 20.9701 6.24814 21.0434 6.01895L19.1382 5.41033C19.1535 5.36263 19.1687 5.35427 19.1221 5.41968C19.0697 5.4932 18.9913 5.58992 18.8449 5.76886L20.3928 7.03534ZM19.7885 7.77387C19.7746 7.87723 19.7345 7.88894 19.8476 7.72619C19.9551 7.57141 20.1209 7.36764 20.3928 7.03534L18.8449 5.76886C18.5943 6.07506 18.3683 6.35016 18.2052 6.58481C18.0477 6.81148 17.8581 7.12317 17.8064 7.50724L19.7885 7.77387ZM19.7885 7.77387L19.7885 7.77386L17.8064 7.50725C17.7106 8.21938 18.0042 8.92816 18.5755 9.36398L19.7885 7.77387ZM20.738 7.86882C20.3108 7.82609 20.0495 7.79922 19.864 7.76584C19.6689 7.73073 19.7056 7.7106 19.7885 7.77387L18.5755 9.36398C18.8836 9.59904 19.2381 9.68533 19.5098 9.73422C19.791 9.78483 20.1454 9.81952 20.539 9.85889L20.738 7.86882ZM21.9168 8.1275C21.703 8.01721 21.4932 7.96759 21.3132 7.93737C21.1431 7.9088 20.9417 7.88918 20.738 7.86882L20.539 9.85889C20.7691 9.8819 20.893 9.89481 20.982 9.90976C21.0612 9.92305 21.0445 9.92795 21 9.90499L21.9168 8.1275ZM22.8599 9.1696C22.682 8.71958 22.3469 8.34933 21.9168 8.1275L21 9.90499L21 9.90499L22.8599 9.1696ZM23 10.3682C23 10.1636 23.0005 9.96126 22.989 9.78912C22.9769 9.60704 22.9484 9.39334 22.8599 9.1696L21 9.90499C20.9816 9.85841 20.9881 9.84227 20.9935 9.9224C20.9995 10.0125 21 10.137 21 10.3682H23ZM23 11.6319V10.3682H21V11.6319H23ZM22.86 12.8302C22.9484 12.6065 22.9769 12.3929 22.989 12.2108C23.0005 12.0388 23 11.8365 23 11.6319H21C21 11.863 20.9995 11.9875 20.9935 12.0776C20.9881 12.1577 20.9816 12.1416 21 12.095L22.86 12.8302ZM21.9166 13.8726C22.3469 13.6507 22.682 13.2804 22.86 12.8302L21 12.095L21 12.095L21.9166 13.8726ZM20.7381 14.1312C20.9417 14.1108 21.1431 14.0912 21.3132 14.0626C21.4931 14.0324 21.7028 13.9828 21.9166 13.8726L21 12.095C21.0445 12.0721 21.0612 12.077 20.982 12.0902C20.893 12.1052 20.7691 12.1181 20.5391 12.1411L20.7381 14.1312ZM20.803 14.1225L20.803 14.1225L20.4742 12.1497L20.4742 12.1497L20.803 14.1225ZM19.7889 14.2261C19.706 14.2893 19.6693 14.2692 19.8644 14.2341C20.0498 14.2007 20.311 14.1739 20.7381 14.1312L20.5391 12.1411C20.1456 12.1805 19.7913 12.2151 19.5102 12.2657C19.2386 12.3146 18.8842 12.4008 18.5762 12.6357L19.7889 14.2261ZM19.7889 14.2261L19.7889 14.2261L18.5762 12.6357C18.0046 13.0716 17.7108 13.7807 17.8068 14.4931L19.7889 14.2261ZM20.3929 14.9644C20.1212 14.6322 19.9555 14.4285 19.8479 14.2738C19.7348 14.1111 19.775 14.1228 19.7889 14.2261L17.8068 14.4931C17.8585 14.877 18.0481 15.1886 18.2056 15.4152C18.3686 15.6497 18.5946 15.9247 18.845 16.2308L20.3929 14.9644ZM21.0433 15.9803C20.9701 15.7513 20.8569 15.5679 20.751 15.4193C20.651 15.2789 20.5225 15.1227 20.3929 14.9643L18.845 16.2308C18.9914 16.4097 19.0698 16.5064 19.1222 16.5799C19.1688 16.6453 19.1535 16.6369 19.1383 16.5892L21.0433 15.9803ZM20.9733 17.3846C21.1658 16.9404 21.1907 16.4415 21.0433 15.9803L19.1383 16.5892L19.1383 16.5892L20.9733 17.3846ZM20.225 18.3309C20.3697 18.1862 20.5131 18.0436 20.6266 17.9138C20.7467 17.7765 20.8776 17.6053 20.9733 17.3846L19.1383 16.5892C19.1582 16.5433 19.1742 16.5365 19.1213 16.5969C19.0619 16.6648 18.9742 16.7532 18.8108 16.9167L20.225 18.3309ZM19.3314 19.2245L20.225 18.3309L18.8108 16.9167L17.9172 17.8102L19.3314 19.2245ZM18.3849 19.9729C18.6056 19.8773 18.7769 19.7463 18.9142 19.6262C19.044 19.5126 19.1867 19.3692 19.3314 19.2245L17.9172 17.8103C17.7537 17.9737 17.6653 18.0614 17.5974 18.1209C17.5369 18.1737 17.5437 18.1577 17.5897 18.1378L18.3849 19.9729ZM16.981 20.0429C17.442 20.1902 17.9408 20.1653 18.3849 19.9729L17.5897 18.1378L17.5897 18.1378L16.981 20.0429ZM15.9647 19.3924C16.1231 19.522 16.2793 19.6505 16.4198 19.7506C16.5684 19.8565 16.7519 19.9697 16.981 20.0429L17.5897 18.1378C17.6374 18.153 17.6457 18.1683 17.5803 18.1217C17.5068 18.0693 17.4101 17.9909 17.2312 17.8445L15.9647 19.3924ZM15.9732 19.3993L15.9732 19.3993L17.2226 17.8376L17.2226 17.8375L15.9732 19.3993ZM15.2262 18.7881C15.1228 18.7742 15.1111 18.7341 15.2738 18.8472C15.4286 18.9547 15.6324 19.1205 15.9647 19.3924L17.2311 17.8445C16.925 17.5939 16.6499 17.3679 16.4152 17.2048C16.1886 17.0473 15.8769 16.8577 15.4928 16.806L15.2262 18.7881ZM15.2262 18.7881L15.2262 18.7881L15.4928 16.806C14.7807 16.7102 14.0719 17.0038 13.636 17.5751L15.2262 18.7881ZM15.1312 19.7378C15.1739 19.3105 15.2008 19.0492 15.2342 18.8636C15.2693 18.6685 15.2894 18.7052 15.2262 18.7882L13.636 17.5751C13.401 17.8832 13.3147 18.2378 13.2658 18.5094C13.2152 18.7907 13.1805 19.1451 13.1411 19.5388L15.1312 19.7378ZM14.8724 20.917C14.9828 20.7031 15.0324 20.4932 15.0626 20.3132C15.0912 20.143 15.1108 19.9415 15.1312 19.7378L13.1411 19.5388C13.1181 19.769 13.1052 19.8929 13.0902 19.982C13.0769 20.0612 13.072 20.0445 13.095 20L14.8724 20.917ZM13.8306 21.8598C14.2805 21.6819 14.6506 21.3469 14.8724 20.917L13.095 20L13.095 20L13.8306 21.8598ZM12.6316 22C12.8363 22 13.0387 22.0005 13.2109 21.989C13.393 21.9768 13.6068 21.9483 13.8306 21.8598L13.095 20C13.1416 19.9816 13.1577 19.9881 13.0776 19.9935C12.9875 19.9995 12.8629 20 12.6316 20V22ZM11.3682 22H12.6316V20H11.3682V22ZM10.1696 21.8599C10.3933 21.9484 10.607 21.9769 10.7891 21.989C10.9613 22.0005 11.1636 22 11.3682 22V20C11.137 20 11.0125 19.9995 10.9224 19.9935C10.8423 19.9881 10.8584 19.9816 10.905 20L10.1696 21.8599ZM9.1275 20.9168C9.34933 21.3469 9.71958 21.682 10.1696 21.8599L10.905 20L10.905 20L9.1275 20.9168ZM8.86882 19.7381C8.88918 19.9417 8.9088 20.1431 8.93737 20.3132C8.96759 20.4932 9.01721 20.703 9.1275 20.9168L10.905 20C10.9279 20.0445 10.9231 20.0612 10.9098 19.982C10.8948 19.893 10.8819 19.7691 10.8589 19.539L8.86882 19.7381ZM8.77387 18.7885C8.7106 18.7056 8.73073 18.6689 8.76584 18.864C8.79922 19.0495 8.82609 19.3108 8.86882 19.7381L10.8589 19.539C10.8195 19.1454 10.7848 18.791 10.7342 18.5098C10.6853 18.2381 10.599 17.8836 10.364 17.5755L8.77387 18.7885ZM8.77387 18.7885L8.77387 18.7885L10.364 17.5755C9.92815 17.0042 9.21939 16.7106 8.50728 16.8064L8.77387 18.7885ZM8.03531 19.3928C8.36763 19.1209 8.5714 18.9551 8.72619 18.8476C8.88895 18.7345 8.87724 18.7746 8.77387 18.7885L8.50727 16.8064C8.12318 16.858 7.81149 17.0477 7.58481 17.2052C7.35015 17.3683 7.07504 17.5944 6.76884 17.8449L8.03531 19.3928ZM8.06643 19.3663L8.06644 19.3663L6.73771 17.8714L6.7377 17.8715L8.06643 19.3663ZM7.01887 20.0434C7.24807 19.9702 7.4315 19.8569 7.58013 19.751C7.72064 19.6509 7.87692 19.5224 8.0353 19.3928L6.76883 17.8449C6.58988 17.9913 6.49316 18.0698 6.41963 18.1222C6.35422 18.1688 6.36258 18.1535 6.41029 18.1383L7.01887 20.0434ZM5.61515 19.9734C6.05918 20.1658 6.55791 20.1907 7.01887 20.0434L6.41029 18.1383L6.41029 18.1383L5.61515 19.9734ZM4.6685 19.2249C4.81321 19.3696 4.95592 19.513 5.08577 19.6266C5.22313 19.7468 5.39438 19.8777 5.61515 19.9734L6.41029 18.1383C6.45624 18.1582 6.46304 18.1742 6.40259 18.1213C6.33464 18.0619 6.2462 17.9742 6.08271 17.8107L4.6685 19.2249ZM3.77506 18.3315L4.6685 19.2249L6.08271 17.8107L5.18927 16.9172L3.77506 18.3315ZM3.02657 17.3848C3.12223 17.6056 3.25318 17.7768 3.37333 17.9142C3.48692 18.044 3.63036 18.1868 3.77506 18.3315L5.18928 16.9172C5.02579 16.7538 4.93809 16.6653 4.87864 16.5974C4.82577 16.5369 4.8418 16.5437 4.86171 16.5897L3.02657 17.3848ZM2.95656 15.9811C2.8093 16.4421 2.83417 16.9408 3.02657 17.3848L4.86171 16.5897L4.86171 16.5897L2.95656 15.9811ZM3.60715 14.9647C3.47756 15.123 3.34903 15.2793 3.24892 15.4198C3.14303 15.5685 3.02977 15.7519 2.95656 15.9811L4.86171 16.5897C4.84647 16.6374 4.83119 16.6457 4.87779 16.5803C4.93018 16.5068 5.00865 16.4101 5.15506 16.2311L3.60715 14.9647ZM4.2114 14.2261C4.2253 14.1228 4.26548 14.1111 4.15237 14.2738C4.0448 14.4286 3.87903 14.6324 3.60715 14.9647L5.15506 16.2311C5.40558 15.9249 5.63162 15.6498 5.79469 15.4152C5.95222 15.1885 6.14188 14.8768 6.19355 14.4928L4.2114 14.2261ZM4.2114 14.2261L4.2114 14.2261L6.19355 14.4928C6.28934 13.7806 5.99575 13.0718 5.42445 12.636L4.2114 14.2261ZM3.26193 14.1312C3.68915 14.1739 3.95044 14.2008 4.13595 14.2342C4.33101 14.2693 4.29432 14.2894 4.2114 14.2261L5.42445 12.636C5.11633 12.4009 4.76184 12.3147 4.49017 12.2658C4.20894 12.2152 3.85458 12.1805 3.46093 12.1411L3.26193 14.1312ZM2.08323 13.8725C2.29705 13.9828 2.50683 14.0324 2.6868 14.0626C2.85693 14.0912 3.05831 14.1108 3.26193 14.1312L3.46094 12.1411C3.23089 12.1181 3.10701 12.1052 3.01798 12.0902C2.93878 12.0769 2.95549 12.0721 3 12.095L2.08323 13.8725ZM1.14009 12.8304C1.31803 13.2804 1.65311 13.6507 2.08323 13.8725L3 12.095L3 12.095L1.14009 12.8304ZM1 11.6318C1 11.8364 0.999483 12.0387 1.01098 12.2109C1.02314 12.3929 1.05163 12.6066 1.14009 12.8304L3 12.095C3.01841 12.1416 3.01188 12.1577 3.00653 12.0776C3.00052 11.9875 3 11.863 3 11.6318H1ZM1 10.3683V11.6318H3V10.3683H1ZM1.14017 9.16944C1.05166 9.39323 1.02315 9.60697 1.01098 9.7891C0.999483 9.96127 1 10.1637 1 10.3683H3C3 10.1371 3.00052 10.0125 3.00654 9.92241C3.01189 9.84226 3.01842 9.85841 3 9.90499L1.14017 9.16944ZM2.08305 8.12757C1.65308 8.34939 1.3181 8.71954 1.14017 9.16944L3 9.90499L3 9.90499L2.08305 8.12757ZM3.26205 7.86881C3.05837 7.88917 2.85694 7.9088 2.68677 7.93737C2.50676 7.9676 2.29692 8.01724 2.08305 8.12757L3 9.90499C2.95548 9.92795 2.93877 9.92306 3.01798 9.90976C3.10704 9.8948 3.23094 9.88189 3.46105 9.85888L3.26205 7.86881ZM3.36155 7.86384H3.36155V9.86384H3.36155V7.86384ZM3.36156 7.86384H3.36155V9.86384H3.36156V7.86384ZM4.21177 7.77383C4.29471 7.71055 4.33141 7.73069 4.1363 7.7658C3.95075 7.7992 3.68939 7.82607 3.26205 7.86881L3.46106 9.85888C3.85482 9.81951 4.20927 9.7848 4.49056 9.73417C4.76231 9.68527 5.1169 9.59894 5.42506 9.36378L4.21177 7.77383ZM4.21177 7.77383L4.21178 7.77383L5.42506 9.36379C5.99613 8.92801 6.28962 8.21944 6.19396 7.50749L4.21177 7.77383ZM3.60732 7.03506C3.87929 7.36746 4.04511 7.5713 4.15272 7.72614C4.26586 7.88895 4.22567 7.87724 4.21177 7.77383L6.19396 7.50749C6.14234 7.1233 5.95263 6.81151 5.79506 6.58478C5.63195 6.35006 5.40584 6.07487 5.15523 5.76858L3.60732 7.03506ZM2.95652 6.01822C3.02973 6.24751 3.14303 6.43102 3.24896 6.5797C3.3491 6.72027 3.47768 6.8766 3.60732 7.03506L5.15523 5.76858C5.00876 5.58956 4.93026 5.49279 4.87785 5.41923C4.83123 5.35379 4.84651 5.36215 4.86175 5.40988L2.95652 6.01822ZM3.02651 4.61498C2.83424 5.05887 2.80938 5.5574 2.95652 6.01822L4.86175 5.40988L4.86175 5.40988L3.02651 4.61498ZM3.77523 3.66798C3.63047 3.81274 3.48698 3.9555 3.37335 4.08539C3.25316 4.2228 3.12217 4.39412 3.02651 4.61498L4.86175 5.40988C4.84184 5.45585 4.8258 5.46265 4.8787 5.40219C4.93816 5.33421 5.02589 5.24574 5.18944 5.0822L3.77523 3.66798ZM4.66855 2.77466L3.77523 3.66798L5.18944 5.0822L6.08276 4.18888L4.66855 2.77466ZM4.66855 2.77466L4.66855 2.77466L6.08276 4.18888L6.08276 4.18887L4.66855 2.77466ZM5.6152 2.02616C5.39443 2.12181 5.22317 2.25276 5.08582 2.37292C4.95597 2.48651 4.81325 2.62995 4.66855 2.77466L6.08276 4.18887C6.24625 4.02538 6.33469 3.93768 6.40264 3.87824C6.46309 3.82536 6.45629 3.84139 6.41033 3.8613L5.6152 2.02616ZM7.01892 1.95614C6.55795 1.80889 6.05923 1.83377 5.6152 2.02615L6.41033 3.8613L6.41034 3.8613L7.01892 1.95614ZM8.03543 2.60681C7.87702 2.47719 7.72073 2.34865 7.58021 2.24853C7.43158 2.14264 7.24813 2.02936 7.01892 1.95614L6.41034 3.8613C6.36262 3.84606 6.35426 3.83078 6.41969 3.8774C6.49324 3.9298 6.58999 4.00829 6.76896 4.15472L8.03543 2.60681ZM8.77391 3.21101C8.87727 3.22493 8.88897 3.26509 8.72621 3.15198C8.57144 3.04441 8.36769 2.87865 8.03543 2.60681L6.76896 4.15472C7.07512 4.40521 7.35018 4.63122 7.58477 4.79427C7.81138 4.95176 8.123 5.14141 8.50697 5.19312L8.77391 3.21101ZM8.77391 3.21101L8.77391 3.21101L8.50697 5.19312C9.21932 5.28905 9.92836 4.99536 10.3642 4.42382L8.77391 3.21101ZM8.86883 2.2618C8.82612 2.6889 8.79926 2.95012 8.76589 3.13558C8.7308 3.33059 8.71068 3.29392 8.77391 3.21101L10.3642 4.42382C10.5992 4.11576 10.6854 3.76136 10.7343 3.48976C10.7849 3.20861 10.8196 2.85435 10.8589 2.46081L8.86883 2.2618ZM9.12739 1.08341C9.01716 1.29719 8.96756 1.50692 8.93736 1.68683C8.9088 1.85692 8.88919 2.05824 8.86883 2.2618L10.8589 2.46081C10.8819 2.23082 10.8948 2.10698 10.9098 2.01798C10.923 1.9388 10.9279 1.9555 10.905 2L9.12739 1.08341ZM10.1698 0.140018C9.71962 0.317961 9.34924 0.653151 9.12739 1.08341L10.905 2L10.905 2L10.1698 0.140018ZM11.3681 0C11.1635 0 10.9612 -0.000516903 10.7892 0.0109727C10.6071 0.0231264 10.3935 0.051606 10.1698 0.140019L10.905 2C10.8584 2.0184 10.8423 2.01188 10.9224 2.00653C11.0125 2.00052 11.137 2 11.3681 2V0ZM12.6318 0H11.3681V2H12.6318V0ZM13.8304 0.140096C13.6066 0.0516349 13.393 0.0231393 13.2109 0.0109788C13.0387 -0.00051719 12.8364 0 12.6318 0V2C12.863 2 12.9875 2.00052 13.0776 2.00653C13.1577 2.01188 13.1416 2.01841 13.095 2L13.8304 0.140096ZM14.8725 1.08322C14.6507 0.653116 14.2804 0.318032 13.8304 0.140096L13.095 2L13.095 2L14.8725 1.08322ZM15 11C15 12.6569 13.6569 14 12 14V16C14.7614 16 17 13.7614 17 11H15ZM12 8C13.6569 8 15 9.34315 15 11H17C17 8.23858 14.7614 6 12 6V8ZM9 11C9 9.34315 10.3431 8 12 8V6C9.23858 6 7 8.23858 7 11H9ZM12 14C10.3431 14 9 12.6569 9 11H7C7 13.7614 9.23858 16 12 16V14Z" fill="#C79BFF"/>
</svg>
